<?xml version="1.0" standalone="no"?>
<!DOCTYPE svg PUBLIC "-//W3C//DTD SVG 20010904//EN"
 "http://www.w3.org/TR/2001/REC-SVG-20010904/DTD/svg10.dtd">
<svg version="1.0" xmlns="http://www.w3.org/2000/svg"
 width="320.000000pt" height="320.000000pt" viewBox="0 0 320.000000 320.000000"
 preserveAspectRatio="xMidYMid meet">
<metadata>
Created by potrace 1.14, written by Peter Selinger 2001-2017
</metadata>
<g transform="translate(0.000000,320.000000) scale(0.100000,-0.100000)"
fill="#000000" stroke="none">
<path d="M284 2382 c-14 -13 -18 -51 -14 -119 l2 -33 -121 0 c-95 0 -123 -3
-135 -16 -14 -14 -16 -79 -16 -568 0 -514 1 -554 18 -568 15 -14 187 -16 1585
-15 1742 0 1605 -6 1592 66 -4 20 -22 74 -40 121 -98 256 -242 460 -440 625
-33 28 -62 52 -65 55 -17 18 -177 115 -240 146 -128 63 -282 112 -435 140 -22
4 -268 9 -547 11 l-508 4 0 68 c0 52 -4 72 -17 82 -24 20 -599 21 -619 1z
m1651 -254 c11 -3 40 -9 65 -13 83 -13 246 -61 254 -74 3 -4 -130 -7 -294 -7
-298 1 -359 -4 -361 -27 -1 -7 -2 -92 -3 -191 -1 -133 2 -183 12 -197 13 -18
37 -19 631 -19 l619 0 49 -72 c28 -40 62 -95 77 -122 30 -53 106 -228 106
-242 0 -5 -639 -9 -1497 -9 l-1498 0 -3 223 -2 222 144 0 c137 0 146 1 157 21
7 13 11 87 11 201 0 148 -3 184 -16 196 -12 12 -44 15 -155 15 l-141 1 0 53 0
54 913 -4 c501 -2 921 -6 932 -9z m220 -333 c237 -52 435 -97 440 -99 6 -2
-196 -4 -447 -4 -252 0 -458 3 -459 7 -1 8 -1 140 0 173 1 20 5 25 19 22 9 -2
211 -47 447 -99z m-1897 14 c52 -24 52 -24 52 -71 l0 -47 -110 0 -110 -1 0
100 0 100 58 -28 c31 -16 81 -39 110 -53z"/>
<path d="M533 2017 c-14 -14 -16 -47 -16 -202 0 -134 4 -189 13 -200 19 -23
351 -22 374 1 23 23 24 385 1 404 -11 9 -65 13 -186 14 -151 1 -172 -1 -186
-17z m263 -220 c29 -15 32 -21 31 -61 l-1 -45 -108 0 -108 0 0 99 0 99 78 -37
c42 -21 91 -46 108 -55z"/>
<path d="M1070 2027 c-16 -4 -31 -13 -31 -20 -1 -7 -2 -169 -3 -361 -1 -273 2
-353 12 -367 12 -17 29 -19 211 -19 140 0 200 3 209 12 9 9 12 106 12 374 0
317 -2 363 -16 375 -18 14 -341 20 -394 6z m278 -235 l42 -22 0 -210 0 -210
-130 0 -130 0 -1 33 c0 33 0 441 1 489 l0 27 88 -43 c48 -23 106 -52 130 -64z"/>
<path d="M43 1002 c-38 -5 -44 -25 -41 -123 l3 -94 1543 -3 1544 -2 26 21 c66
52 104 159 67 189 -14 12 -272 14 -1568 15 -854 0 -1562 -1 -1574 -3z"/>
</g>
</svg>
